<?xml version="1.0" standalone="no"?>
<!DOCTYPE svg PUBLIC "-//W3C//DTD SVG 20010904//EN"
 "http://www.w3.org/TR/2001/REC-SVG-20010904/DTD/svg10.dtd">
<svg version="1.0" xmlns="http://www.w3.org/2000/svg"
 width="1754.000000pt" height="1879.000000pt" viewBox="0 0 1754.000000 1879.000000"
 preserveAspectRatio="xMidYMid meet">

<g transform="translate(0.000000,1879.000000) scale(0.100000,-0.100000)"
fill="#227f89" stroke="none">
<path d="M4680 15826 c-127 -29 -241 -84 -346 -167 -116 -92 -218 -246 -266
-399 l-23 -75 0 -2260 0 -2260 23 -75 c84 -271 300 -481 572 -557 62 -17 232
-18 4110 -18 3878 0 4048 1 4110 18 284 80 509 308 580 591 20 78 20 114 20
2301 0 2195 0 2223 -20 2301 -72 282 -292 508 -575 591 -57 17 -275 18 -4095
20 -3153 1 -4047 -2 -4090 -11z m7073 -728 c-14 -93 -8 -287 10 -358 9 -36 39
-110 67 -165 82 -166 198 -282 365 -365 55 -27 132 -57 170 -66 78 -19 257
-24 348 -10 l57 8 0 -1267 0 -1268 -37 7 c-417 74 -811 -150 -944 -537 -34
-98 -54 -239 -45 -319 l6 -58 -3028 0 -3028 0 4 113 c13 338 -156 630 -449
778 -131 65 -212 83 -376 84 l-143 0 0 1250 0 1250 137 0 c166 1 239 17 370
80 171 83 298 210 379 380 67 137 79 195 79 368 l0 147 3033 0 3033 0 -8 -52z"/>
<path d="M8550 14704 c-568 -70 -1057 -389 -1345 -879 -300 -509 -322 -1158
-59 -1688 204 -412 528 -709 959 -880 390 -155 888 -156 1287 -2 557 216 972
695 1102 1275 99 444 27 911 -199 1295 -263 448 -692 754 -1201 856 -86 17
-152 22 -309 24 -110 2 -216 1 -235 -1z m475 -778 c400 -119 680 -433 750
-840 74 -432 -161 -890 -560 -1089 -160 -79 -314 -111 -505 -104 -149 5 -237
24 -366 78 -158 66 -345 219 -447 365 -138 198 -208 478 -178 707 54 403 315
729 691 861 135 48 192 56 365 52 138 -3 172 -7 250 -30z"/>
<path d="M6025 13406 c-259 -64 -419 -323 -364 -588 52 -248 304 -420 558
-381 268 42 455 298 412 564 -45 285 -329 474 -606 405z"/>
<path d="M11235 13406 c-369 -92 -501 -558 -234 -827 193 -193 498 -197 695
-7 279 267 154 735 -221 833 -70 18 -170 18 -240 1z"/>
<path d="M4293 9436 c-102 -32 -176 -98 -222 -196 -21 -46 -26 -69 -25 -141 0
-73 4 -94 29 -144 51 -106 139 -173 254 -195 78 -15 8766 -14 8846 1 112 21
200 86 251 186 26 52 29 68 29 153 0 84 -3 102 -28 152 -35 72 -93 130 -165
165 l-57 28 -4435 2 c-3649 1 -4442 -1 -4477 -11z"/>
<path d="M4290 8171 c-117 -36 -205 -131 -236 -253 -39 -153 37 -319 181 -396
l50 -27 4465 0 4465 0 63 34 c74 40 115 84 151 161 22 47 26 69 26 150 0 84
-3 101 -28 147 -39 75 -78 115 -149 154 l-63 34 -4450 2 c-2447 1 -4461 -2
-4475 -6z"/>
<path d="M13358 7105 c-42 -8 -139 -38 -215 -66 -76 -28 -248 -91 -383 -139
-483 -173 -739 -273 -884 -347 -59 -30 -59 -30 -35 -43 53 -27 178 -128 257
-207 l83 -83 37 24 c96 59 396 214 539 277 87 39 365 153 618 254 253 101 479
192 503 203 l43 19 -68 36 c-149 77 -329 103 -495 72z"/>
<path d="M14590 6735 c-155 -31 -603 -224 -1285 -552 -487 -234 -845 -423
-845 -446 0 -10 9 -49 20 -85 32 -109 50 -237 50 -363 l0 -118 213 142 c584
392 1791 1052 2312 1264 61 25 112 47 113 48 10 9 -192 95 -255 109 -85 19
-232 19 -323 1z"/>
<path d="M4775 6445 c-538 -49 -965 -164 -1569 -422 -113 -48 -130 -53 -138
-39 -5 9 -32 44 -59 77 -123 147 -304 242 -504 264 -82 9 -1546 -90 -1645
-111 -355 -76 -618 -371 -646 -724 -9 -121 220 -3244 246 -3345 92 -359 414
-604 795 -605 164 0 1467 87 1565 105 59 11 116 31 189 66 88 43 116 63 185
132 46 47 96 109 116 145 19 34 40 69 45 76 8 12 489 -7 3085 -120 1691 -73
3134 -139 3205 -145 163 -14 527 -6 695 16 382 49 695 146 1045 325 216 110
4809 2796 4890 2859 124 98 233 262 270 406 22 86 20 254 -4 347 -59 231 -221
395 -451 455 -99 26 -251 22 -370 -10 -210 -56 -405 -139 -810 -343 -802 -404
-1522 -819 -2160 -1246 -407 -272 -639 -371 -1085 -462 -926 -189 -2299 -322
-3787 -367 -431 -13 -449 -12 -508 38 -89 75 -94 222 -8 299 57 53 4 46 1935
229 1017 96 1877 182 1912 190 264 65 483 284 552 554 27 104 27 268 0 374
-24 92 -83 210 -146 289 -94 120 -261 228 -406 263 -71 17 57 15 -2064 40
-704 8 -1346 17 -1426 20 -274 9 -502 47 -849 142 -489 132 -879 202 -1295
233 -187 13 -627 11 -800 -5z m-2822 -3280 c237 -62 392 -281 356 -505 -15
-98 -58 -181 -131 -254 -75 -74 -146 -111 -257 -133 -74 -15 -88 -15 -162 0
-111 22 -182 59 -257 133 -155 155 -180 384 -62 559 113 166 325 249 513 200z"/>
</g>
</svg>
